<svg xmlns="http://www.w3.org/2000/svg" width="960" height="520" viewBox="0 0 960 520"><rect width="100%" height="100%" fill="#fbfcfd"/><text x="480.0" y="32.0" font-family="Arial, Microsoft YaHei, sans-serif" font-size="20" fill="#14213d" text-anchor="middle" font-weight="700">td Selection: Dynamic Metric Comparison</text><line x1="74" y1="448" x2="918" y2="448" stroke="#8795a1"/><rect x="121.5" y="293.2" width="46.4" height="154.8" fill="#2b6cb0" rx="4"/><text x="144.7" y="285.2" font-family="Arial, Microsoft YaHei, sans-serif" font-size="11" fill="#2b6cb0" text-anchor="middle" font-weight="700">11.34 bit</text><rect x="191.1" y="168.4" width="46.4" height="279.6" fill="#d9480f" rx="4"/><text x="214.3" y="160.4" font-family="Arial, Microsoft YaHei, sans-serif" font-size="11" fill="#d9480f" text-anchor="middle" font-weight="700">11.53 bit</text><text x="179.5" y="476.0" font-family="Arial, Microsoft YaHei, sans-serif" font-size="12" fill="#233" text-anchor="middle" font-weight="700">Mean ENOB</text><rect x="332.5" y="250.3" width="46.4" height="197.7" fill="#2b6cb0" rx="4"/><text x="355.7" y="242.3" font-family="Arial, Microsoft YaHei, sans-serif" font-size="11" fill="#2b6cb0" text-anchor="middle" font-weight="700">11.08 bit</text><rect x="402.1" y="196.3" width="46.4" height="251.7" fill="#d9480f" rx="4"/><text x="425.3" y="188.3" font-family="Arial, Microsoft YaHei, sans-serif" font-size="11" fill="#d9480f" text-anchor="middle" font-weight="700">11.14 bit</text><text x="390.5" y="476.0" font-family="Arial, Microsoft YaHei, sans-serif" font-size="12" fill="#233" text-anchor="middle" font-weight="700">Worst ENOB</text><rect x="543.5" y="295.0" width="46.4" height="153.0" fill="#2b6cb0" rx="4"/><text x="566.7" y="287.0" font-family="Arial, Microsoft YaHei, sans-serif" font-size="11" fill="#2b6cb0" text-anchor="middle" font-weight="700">70.20 dB</text><rect x="613.1" y="167.3" width="46.4" height="280.7" fill="#d9480f" rx="4"/><text x="636.3" y="159.3" font-family="Arial, Microsoft YaHei, sans-serif" font-size="11" fill="#d9480f" text-anchor="middle" font-weight="700">71.48 dB</text><text x="601.5" y="476.0" font-family="Arial, Microsoft YaHei, sans-serif" font-size="12" fill="#233" text-anchor="middle" font-weight="700">Mean SNR</text><rect x="754.5" y="283.6" width="46.4" height="164.4" fill="#2b6cb0" rx="4"/><text x="777.7" y="275.6" font-family="Arial, Microsoft YaHei, sans-serif" font-size="11" fill="#2b6cb0" text-anchor="middle" font-weight="700">80.76 dB</text><rect x="824.1" y="174.7" width="46.4" height="273.3" fill="#d9480f" rx="4"/><text x="847.3" y="166.7" font-family="Arial, Microsoft YaHei, sans-serif" font-size="11" fill="#d9480f" text-anchor="middle" font-weight="700">81.90 dB</text><text x="812.5" y="476.0" font-family="Arial, Microsoft YaHei, sans-serif" font-size="12" fill="#233" text-anchor="middle" font-weight="700">Mean SFDR</text><rect x="86" y="46" width="18" height="10" fill="#2b6cb0"/><text x="112.0" y="56.0" font-family="Arial, Microsoft YaHei, sans-serif" font-size="12" fill="#233" text-anchor="start" font-weight="700">td=24.05n</text><rect x="86" y="69" width="18" height="10" fill="#d9480f"/><text x="112.0" y="79.0" font-family="Arial, Microsoft YaHei, sans-serif" font-size="12" fill="#233" text-anchor="start" font-weight="700">td=28n</text></svg>