<?xml version="1.0" encoding="utf-8" standalone="no"?>
<!DOCTYPE svg PUBLIC "-//W3C//DTD SVG 1.1//EN"
  "http://www.w3.org/Graphics/SVG/1.1/DTD/svg11.dtd">
<svg xmlns:xlink="http://www.w3.org/1999/xlink" width="486.47952pt" height="155.27952pt" viewBox="0 0 486.47952 155.27952" xmlns="http://www.w3.org/2000/svg" version="1.1">
 <metadata>
  <rdf:RDF xmlns:dc="http://purl.org/dc/elements/1.1/" xmlns:cc="http://creativecommons.org/ns#" xmlns:rdf="http://www.w3.org/1999/02/22-rdf-syntax-ns#">
   <cc:Work>
    <dc:type rdf:resource="http://purl.org/dc/dcmitype/StillImage"/>
    <dc:date>2026-07-22T07:46:46.795084</dc:date>
    <dc:format>image/svg+xml</dc:format>
    <dc:creator>
     <cc:Agent>
      <dc:title>Matplotlib v3.10.8, https://matplotlib.org/</dc:title>
     </cc:Agent>
    </dc:creator>
   </cc:Work>
  </rdf:RDF>
 </metadata>
 <defs>
  <style type="text/css">*{stroke-linejoin: round; stroke-linecap: butt}</style>
 </defs>
 <g id="figure_1">
  <g id="patch_1">
   <path d="M 0 155.27952 
L 486.47952 155.27952 
L 486.47952 0 
L 0 0 
z
" style="fill: #ffffff"/>
  </g>
  <g id="axes_1">
   <g id="patch_2">
    <path d="M 13.126988 71.924778 
L 96.547906 71.924778 
Q 101.383901 71.924778 101.383901 66.209796 
L 101.383901 31.919904 
Q 101.383901 26.204922 96.547906 26.204922 
L 13.126988 26.204922 
Q 8.290993 26.204922 8.290993 31.919904 
L 8.290993 66.209796 
Q 8.290993 71.924778 13.126988 71.924778 
z
" clip-path="url(#p330a6dc646)" style="fill: #009e73; opacity: 0.95"/>
   </g>
   <g id="patch_3">
    <path d="M 13.126988 138.599568 
L 96.547906 138.599568 
Q 101.383901 138.599568 101.383901 132.884586 
L 101.383901 98.594694 
Q 101.383901 92.879712 96.547906 92.879712 
L 13.126988 92.879712 
Q 8.290993 92.879712 8.290993 98.594694 
L 8.290993 132.884586 
Q 8.290993 138.599568 13.126988 138.599568 
z
" clip-path="url(#p330a6dc646)" style="fill: #d55e00; opacity: 0.95"/>
   </g>
   <g id="patch_4">
    <path d="M 136.041866 105.262173 
L 229.537774 105.262173 
Q 234.373769 105.262173 234.373769 99.547191 
L 234.373769 60.494814 
Q 234.373769 54.779832 229.537774 54.779832 
L 136.041866 54.779832 
Q 131.205871 54.779832 131.205871 60.494814 
L 131.205871 99.547191 
Q 131.205871 105.262173 136.041866 105.262173 
z
" clip-path="url(#p330a6dc646)" style="fill: #6a5acd; opacity: 0.95"/>
   </g>
   <g id="patch_5">
    <path d="M 269.031734 105.262173 
L 358.497646 105.262173 
Q 363.333641 105.262173 363.333641 99.547191 
L 363.333641 60.494814 
Q 363.333641 54.779832 358.497646 54.779832 
L 269.031734 54.779832 
Q 264.195739 54.779832 264.195739 60.494814 
L 264.195739 99.547191 
Q 264.195739 105.262173 269.031734 105.262173 
z
" clip-path="url(#p330a6dc646)" style="fill: #0072b2; opacity: 0.95"/>
   </g>
   <g id="patch_6">
    <path d="M 397.991606 105.262173 
L 471.337534 105.262173 
Q 476.173529 105.262173 476.173529 99.547191 
L 476.173529 60.494814 
Q 476.173529 54.779832 471.337534 54.779832 
L 397.991606 54.779832 
Q 393.155611 54.779832 393.155611 60.494814 
L 393.155611 99.547191 
Q 393.155611 105.262173 397.991606 105.262173 
z
" clip-path="url(#p330a6dc646)" style="fill: #777777; opacity: 0.95"/>
   </g>
   <g id="patch_7">
    <path d="M 101.839637 50.171465 
Q 116.293078 59.779239 129.815431 68.768083 
" clip-path="url(#p330a6dc646)" style="fill: none; stroke: #1a1a1a; stroke-linecap: round"/>
    <path d="M 127.591448 64.888148 
L 129.815431 68.768083 
L 125.377093 68.219309 
z
" clip-path="url(#p330a6dc646)" style="fill: #1a1a1a; stroke: #1a1a1a; stroke-linecap: round"/>
   </g>
   <g id="patch_8">
    <path d="M 101.727474 114.478238 
Q 116.293873 102.64363 129.992533 91.514023 
" clip-path="url(#p330a6dc646)" style="fill: none; stroke: #1a1a1a; stroke-linecap: round"/>
    <path d="M 125.626868 92.484059 
L 129.992533 91.514023 
L 128.149162 95.588577 
z
" clip-path="url(#p330a6dc646)" style="fill: #1a1a1a; stroke: #1a1a1a; stroke-linecap: round"/>
   </g>
   <g id="patch_9">
    <path d="M 235.167961 80.021003 
Q 249.287931 80.021003 262.289866 80.021003 
" clip-path="url(#p330a6dc646)" style="fill: none; stroke: #1a1a1a; stroke-linecap: round"/>
    <path d="M 258.289866 78.021003 
L 262.289866 80.021003 
L 258.289866 82.021003 
z
" clip-path="url(#p330a6dc646)" style="fill: #1a1a1a; stroke: #1a1a1a; stroke-linecap: round"/>
   </g>
   <g id="patch_10">
    <path d="M 364.127833 80.021003 
Q 378.247803 80.021003 391.249738 80.021003 
" clip-path="url(#p330a6dc646)" style="fill: none; stroke: #1a1a1a; stroke-linecap: round"/>
    <path d="M 387.249738 78.021003 
L 391.249738 80.021003 
L 387.249738 82.021003 
z
" clip-path="url(#p330a6dc646)" style="fill: #1a1a1a; stroke: #1a1a1a; stroke-linecap: round"/>
   </g>
   <g id="text_1">
    <text style="font-size: 7.5px; font-family: 'Helvetica', 'Arial', 'Liberation Sans', 'DejaVu Sans', sans-serif; fill: #ffffff" transform="translate(33.156002 46.894655)">Huang paper</text>
    <text style="font-size: 7.5px; font-family: 'Helvetica', 'Arial', 'Liberation Sans', 'DejaVu Sans', sans-serif; fill: #ffffff" transform="translate(27.328267 55.024889)">Eq. (4.17)-(4.19)</text>
   </g>
   <g id="text_2">
    <text style="font-size: 7.5px; font-family: 'Helvetica', 'Arial', 'Liberation Sans', 'DejaVu Sans', sans-serif; fill: #ffffff" transform="translate(21.491744 113.654874)">Historical legacy log</text>
    <text style="font-size: 7.5px; font-family: 'Helvetica', 'Arial', 'Liberation Sans', 'DejaVu Sans', sans-serif; fill: #ffffff" transform="translate(21.696236 121.70214)">224 measured pairs</text>
   </g>
   <g id="text_3">
    <text style="font-size: 7.5px; font-family: 'Helvetica', 'Arial', 'Liberation Sans', 'DejaVu Sans', sans-serif; fill: #ffffff" transform="translate(144.019507 77.905651)">Python evidence layers</text>
    <text style="font-size: 7.5px; font-family: 'Helvetica', 'Arial', 'Liberation Sans', 'DejaVu Sans', sans-serif; fill: #ffffff" transform="translate(148.402906 85.926198)">kept strictly separate</text>
   </g>
   <g id="text_4">
    <text style="font-size: 7.5px; font-family: 'Helvetica', 'Arial', 'Liberation Sans', 'DejaVu Sans', sans-serif; fill: #ffffff" transform="translate(273.986565 77.850807)">Wall + signed candidate</text>
    <text style="font-size: 7.5px; font-family: 'Helvetica', 'Arial', 'Liberation Sans', 'DejaVu Sans', sans-serif; fill: #ffffff" transform="translate(274.996721 85.981042)">boundary and MC tests</text>
   </g>
   <g id="text_5">
    <text style="font-size: 7.5px; font-family: 'Helvetica', 'Arial', 'Liberation Sans', 'DejaVu Sans', sans-serif; fill: #ffffff" transform="translate(407.426679 77.894753)">VA conformance</text>
    <text style="font-size: 7.5px; font-family: 'Helvetica', 'Arial', 'Liberation Sans', 'DejaVu Sans', sans-serif; fill: #ffffff" transform="translate(416.73664 85.937096)">future gate</text>
   </g>
   <g id="text_6">
    <text style="font-size: 6.5px; font-family: 'Helvetica', 'Arial', 'Liberation Sans', 'DejaVu Sans', sans-serif; text-anchor: middle" x="116.294886" y="51.207968" transform="rotate(-0 116.294886 51.207968)">formula</text>
   </g>
   <g id="text_7">
    <text style="font-size: 6.5px; font-family: 'Helvetica', 'Arial', 'Liberation Sans', 'DejaVu Sans', sans-serif; text-anchor: middle" x="116.294886" y="94.070333" transform="rotate(-0 116.294886 94.070333)">replay</text>
   </g>
   <g id="text_8">
    <text style="font-size: 6.5px; font-family: 'Helvetica', 'Arial', 'Liberation Sans', 'DejaVu Sans', sans-serif; text-anchor: middle" x="249.284754" y="71.44853" transform="rotate(-0 249.284754 71.44853)">A/B</text>
   </g>
   <g id="text_9">
    <text style="font-size: 6.5px; font-family: 'Helvetica', 'Arial', 'Liberation Sans', 'DejaVu Sans', sans-serif; text-anchor: middle" x="378.244626" y="71.44853" transform="rotate(-0 378.244626 71.44853)">only after pass</text>
   </g>
   <g id="text_10">
    <text style="font-weight: 700; font-size: 9.5px; font-family: 'Helvetica', 'Arial', 'Liberation Sans', 'DejaVu Sans', sans-serif; text-anchor: middle" x="243.23976" y="18.108698" transform="rotate(-0 243.23976 18.108698)">Evidence provenance and hard stage gate</text>
   </g>
  </g>
 </g>
 <defs>
  <clipPath id="p330a6dc646">
   <rect x="1.44" y="1.44" width="483.59952" height="152.39952"/>
  </clipPath>
 </defs>
</svg>
